<svg xmlns="http://www.w3.org/2000/svg" xmlns:xlink="http://www.w3.org/1999/xlink" width="500" zoomAndPan="magnify" viewBox="0 0 375 374.999991" height="500" preserveAspectRatio="xMidYMid meet" version="1.0"><defs><g/><clipPath id="2c7df1f57d"><path d="M 130.230469 105.878906 L 244.980469 105.878906 L 244.980469 220.628906 L 130.230469 220.628906 Z M 130.230469 105.878906 " clip-rule="nonzero"/></clipPath><clipPath id="29c78ef3a8"><path d="M 187.605469 105.878906 C 155.917969 105.878906 130.230469 131.566406 130.230469 163.253906 C 130.230469 194.941406 155.917969 220.628906 187.605469 220.628906 C 219.292969 220.628906 244.980469 194.941406 244.980469 163.253906 C 244.980469 131.566406 219.292969 105.878906 187.605469 105.878906 " clip-rule="nonzero"/></clipPath><clipPath id="42dc9058eb"><path d="M 149 136 L 225 136 L 225 174 L 149 174 Z M 149 136 " clip-rule="nonzero"/></clipPath><clipPath id="2719c6b219"><path d="M 224.84375 117.242188 L 225.117188 208.742188 L 150.121094 208.964844 L 149.84375 117.46875 Z M 224.84375 117.242188 " clip-rule="nonzero"/></clipPath><clipPath id="5c3628a9a3"><path d="M 224.84375 117.242188 L 225.117188 208.742188 L 150.121094 208.964844 L 149.84375 117.46875 Z M 224.84375 117.242188 " clip-rule="nonzero"/></clipPath><clipPath id="b7825bace6"><path d="M 224.84375 117.242188 L 225.117188 208.742188 L 150.121094 208.964844 L 149.84375 117.46875 Z M 224.84375 117.242188 " clip-rule="nonzero"/></clipPath><clipPath id="4fec8f1d3c"><path d="M 168 117 L 217 117 L 217 209 L 168 209 Z M 168 117 " clip-rule="nonzero"/></clipPath><clipPath id="37ef726687"><path d="M 224.84375 117.242188 L 225.117188 208.742188 L 150.121094 208.964844 L 149.84375 117.46875 Z M 224.84375 117.242188 " clip-rule="nonzero"/></clipPath><clipPath id="ac83d24cf8"><path d="M 224.84375 117.242188 L 225.117188 208.742188 L 150.121094 208.964844 L 149.84375 117.46875 Z M 224.84375 117.242188 " clip-rule="nonzero"/></clipPath><clipPath id="1ab24af95d"><path d="M 224.84375 117.242188 L 225.117188 208.742188 L 150.121094 208.964844 L 149.84375 117.46875 Z M 224.84375 117.242188 " clip-rule="nonzero"/></clipPath><clipPath id="980a62a8d4"><path d="M 169 136 L 204 136 L 204 173 L 169 173 Z M 169 136 " clip-rule="nonzero"/></clipPath><clipPath id="2338f99353"><path d="M 224.84375 117.242188 L 225.117188 208.742188 L 150.121094 208.964844 L 149.84375 117.46875 Z M 224.84375 117.242188 " clip-rule="nonzero"/></clipPath><clipPath id="ab0c696fbd"><path d="M 224.84375 117.242188 L 225.117188 208.742188 L 150.121094 208.964844 L 149.84375 117.46875 Z M 224.84375 117.242188 " clip-rule="nonzero"/></clipPath><clipPath id="ba8db7c053"><path d="M 224.84375 117.242188 L 225.117188 208.742188 L 150.121094 208.964844 L 149.84375 117.46875 Z M 224.84375 117.242188 " clip-rule="nonzero"/></clipPath><clipPath id="10b290e39c"><path d="M 168 136 L 210 136 L 210 173 L 168 173 Z M 168 136 " clip-rule="nonzero"/></clipPath><clipPath id="09fa27d72b"><path d="M 224.84375 117.242188 L 225.117188 208.742188 L 150.121094 208.964844 L 149.84375 117.46875 Z M 224.84375 117.242188 " clip-rule="nonzero"/></clipPath><clipPath id="a620613ccd"><path d="M 224.84375 117.242188 L 225.117188 208.742188 L 150.121094 208.964844 L 149.84375 117.46875 Z M 224.84375 117.242188 " clip-rule="nonzero"/></clipPath><clipPath id="9067053223"><path d="M 224.84375 117.242188 L 225.117188 208.742188 L 150.121094 208.964844 L 149.84375 117.46875 Z M 224.84375 117.242188 " clip-rule="nonzero"/></clipPath><clipPath id="24ba2a5b7c"><path d="M 169 135 L 208 135 L 208 175 L 169 175 Z M 169 135 " clip-rule="nonzero"/></clipPath><clipPath id="15ebc59b52"><path d="M 224.84375 117.242188 L 225.117188 208.742188 L 150.121094 208.964844 L 149.84375 117.46875 Z M 224.84375 117.242188 " clip-rule="nonzero"/></clipPath><clipPath id="428b737a14"><path d="M 224.84375 117.242188 L 225.117188 208.742188 L 150.121094 208.964844 L 149.84375 117.46875 Z M 224.84375 117.242188 " clip-rule="nonzero"/></clipPath><clipPath id="91657e895c"><path d="M 224.84375 117.242188 L 225.117188 208.742188 L 150.121094 208.964844 L 149.84375 117.46875 Z M 224.84375 117.242188 " clip-rule="nonzero"/></clipPath></defs><g clip-path="url(#2c7df1f57d)"><g clip-path="url(#29c78ef3a8)"><path stroke-linecap="butt" transform="matrix(0.751381, 0, 0, 0.751381, 130.229482, 105.879485)" fill="none" stroke-linejoin="miter" d="M 76.360689 -0.000770311 C 34.188354 -0.000770311 0.00131278 34.186271 0.00131278 76.358606 C 0.00131278 118.530942 34.188354 152.717983 76.360689 152.717983 C 118.533025 152.717983 152.720066 118.530942 152.720066 76.358606 C 152.720066 34.186271 118.533025 -0.000770311 76.360689 -0.000770311 " stroke="#05685e" stroke-width="6" stroke-opacity="1" stroke-miterlimit="4"/></g></g><g clip-path="url(#42dc9058eb)"><g clip-path="url(#2719c6b219)"><g clip-path="url(#5c3628a9a3)"><g clip-path="url(#b7825bace6)"><path fill="#068276" d="M 207.703125 168.242188 L 211.261719 168.230469 C 214.96875 168.222656 218.5625 166.671875 221.117188 163.984375 C 223.660156 161.308594 224.960938 157.820312 224.777344 154.167969 C 224.421875 147.015625 218.519531 141.433594 211.347656 141.453125 L 205.957031 141.46875 C 205.957031 141.46875 197.699219 142.242188 197.488281 137.304688 C 197.597656 141.417969 200.988281 144.722656 205.128906 144.710938 L 211.355469 144.691406 C 216.796875 144.675781 221.269531 148.90625 221.539062 154.328125 C 221.675781 157.09375 220.691406 159.726562 218.765625 161.757812 C 216.820312 163.808594 214.078125 164.988281 211.25 164.996094 L 207.691406 165.003906 C 207.632812 165.003906 207.570312 165.007812 207.511719 165.007812 C 202.570312 165.222656 203.339844 173.46875 203.339844 173.46875 L 203.335938 172.628906 C 203.332031 170.21875 205.289062 168.25 207.703125 168.242188 M 173.910156 136.378906 C 173.910156 136.378906 174.628906 144.046875 170.246094 144.785156 C 170.019531 144.804688 169.789062 144.816406 169.554688 144.816406 L 163.496094 144.835938 C 160.664062 144.84375 157.925781 146.023438 155.980469 148.074219 C 154.050781 150.101562 153.066406 152.742188 153.203125 155.5 C 153.472656 160.921875 157.945312 165.15625 163.386719 165.140625 L 169.617188 165.121094 C 173.757812 165.109375 177.148438 168.414062 177.253906 172.523438 C 177.042969 167.589844 168.785156 168.359375 168.785156 168.359375 L 163.398438 168.375 C 156.222656 168.398438 150.324219 162.8125 149.96875 155.660156 C 149.957031 155.449219 149.949219 155.238281 149.949219 155.027344 C 149.941406 151.605469 151.234375 148.367188 153.628906 145.847656 C 156.179688 143.15625 159.773438 141.609375 163.484375 141.597656 L 169.546875 141.578125 C 171.960938 141.570312 173.917969 139.605469 173.910156 137.195312 L 173.910156 136.378906 " fill-opacity="1" fill-rule="nonzero"/></g></g></g></g><g clip-path="url(#4fec8f1d3c)"><g clip-path="url(#37ef726687)"><g clip-path="url(#ac83d24cf8)"><g clip-path="url(#1ab24af95d)"><path fill="#00a79d" d="M 175.402344 191.675781 C 173.484375 191.683594 171.925781 190.132812 171.917969 188.21875 C 171.914062 186.304688 173.464844 184.746094 175.382812 184.738281 C 177.300781 184.734375 178.859375 186.28125 178.867188 188.199219 C 178.871094 190.113281 177.320312 191.671875 175.402344 191.675781 M 177.152344 137.183594 C 177.164062 141.148438 174.125 144.421875 170.246094 144.785156 C 174.628906 144.046875 173.910156 136.378906 173.910156 136.378906 L 173.894531 131.140625 C 173.882812 127.433594 175.410156 123.835938 178.085938 121.273438 C 180.753906 118.71875 184.234375 117.398438 187.894531 117.558594 C 195.058594 117.871094 200.683594 123.726562 200.707031 130.890625 L 200.726562 137.113281 C 200.734375 139.523438 202.703125 141.480469 205.117188 141.472656 L 205.957031 141.46875 C 205.957031 141.46875 197.699219 142.242188 197.488281 137.304688 C 197.488281 137.246094 197.484375 137.183594 197.484375 137.121094 L 197.464844 130.902344 C 197.449219 125.46875 193.183594 121.027344 187.753906 120.792969 C 184.988281 120.667969 182.351562 121.667969 180.332031 123.605469 C 178.292969 125.5625 177.125 128.304688 177.132812 131.132812 L 177.152344 137.183594 M 196.664062 208.785156 L 195.847656 208.789062 C 195.003906 208.792969 194.3125 208.15625 194.226562 207.339844 C 192.226562 206.710938 190.445312 205.457031 189.191406 203.738281 C 187.945312 202.039062 187.285156 199.992188 187.277344 197.914062 C 187.277344 197.273438 187.335938 196.621094 187.460938 195.980469 C 187.921875 193.671875 188.484375 191.582031 189.152344 189.703125 C 188.847656 189.402344 188.667969 188.984375 188.667969 188.554688 C 188.667969 188.347656 188.707031 188.136719 188.792969 187.929688 C 189.683594 185.773438 190.738281 183.917969 191.921875 182.417969 C 191.9375 182.398438 191.953125 182.378906 191.96875 182.363281 C 194.152344 179.832031 196.996094 178.257812 200.113281 177.820312 L 200.097656 172.636719 C 200.082031 168.503906 203.394531 165.117188 207.511719 165.007812 C 202.570312 165.222656 203.339844 173.46875 203.339844 173.46875 L 203.351562 177.773438 C 206.582031 178.136719 209.539062 179.710938 211.804688 182.304688 C 211.824219 182.320312 211.835938 182.339844 211.851562 182.355469 C 213.046875 183.851562 214.109375 185.699219 215.015625 187.851562 C 215.277344 188.476562 215.117188 189.175781 214.664062 189.625 C 215.34375 191.5 215.921875 193.589844 216.394531 195.894531 C 216.945312 198.59375 216.332031 201.425781 214.710938 203.660156 C 213.417969 205.449219 211.566406 206.742188 209.476562 207.359375 C 209.367188 208.144531 208.691406 208.75 207.875 208.753906 L 207.058594 208.753906 C 206.160156 208.757812 205.433594 208.035156 205.429688 207.140625 C 205.429688 206.242188 206.152344 205.515625 207.046875 205.511719 L 207.867188 205.511719 C 208.421875 205.507812 208.914062 205.785156 209.207031 206.210938 C 211.023438 205.660156 212.628906 204.527344 213.757812 202.972656 C 215.183594 201.003906 215.726562 198.507812 215.238281 196.128906 C 214.78125 193.90625 214.226562 191.894531 213.582031 190.09375 C 212.925781 190.117188 212.296875 189.742188 212.027344 189.105469 C 211.246094 187.242188 210.339844 185.660156 209.34375 184.40625 C 207.363281 182.15625 204.714844 180.921875 201.882812 180.929688 C 199.050781 180.9375 196.410156 182.191406 194.445312 184.449219 C 193.453125 185.710938 192.558594 187.300781 191.789062 189.167969 C 191.523438 189.808594 190.894531 190.1875 190.238281 190.167969 C 189.601562 191.96875 189.058594 193.984375 188.621094 196.210938 C 188.148438 198.589844 188.703125 201.082031 190.140625 203.042969 C 191.242188 204.542969 192.789062 205.644531 194.539062 206.203125 C 194.832031 205.804688 195.304688 205.546875 195.835938 205.546875 L 196.652344 205.542969 C 197.550781 205.542969 198.28125 206.265625 198.285156 207.160156 C 198.285156 208.054688 197.558594 208.785156 196.664062 208.785156 M 170.695312 188.226562 C 170.6875 185.59375 172.824219 183.449219 175.457031 183.441406 C 178.09375 183.433594 180.242188 185.566406 180.25 188.195312 C 180.257812 190.828125 178.121094 192.972656 175.484375 192.980469 C 172.851562 192.988281 170.703125 190.855469 170.695312 188.226562 M 182.496094 188.191406 C 182.488281 184.957031 180.273438 182.234375 177.285156 181.4375 L 177.261719 172.707031 C 177.261719 172.644531 177.257812 172.582031 177.257812 172.523438 C 177.042969 167.585938 168.785156 168.359375 168.785156 168.359375 L 169.625 168.355469 C 172.039062 168.347656 174.011719 170.304688 174.019531 172.714844 L 174.042969 181.34375 C 170.84375 182.003906 168.4375 184.84375 168.449219 188.230469 C 168.460938 192.101562 171.621094 195.238281 175.492188 195.226562 C 179.367188 195.214844 182.507812 192.058594 182.496094 188.191406 " fill-opacity="1" fill-rule="nonzero"/></g></g></g></g><g clip-path="url(#980a62a8d4)"><g clip-path="url(#2338f99353)"><g clip-path="url(#ab0c696fbd)"><g clip-path="url(#ba8db7c053)"><path fill="#cccccc" d="M 169.757812 168.359375 C 170.175781 168.367188 170.578125 168.4375 170.960938 168.558594 C 170.949219 168.558594 170.9375 168.554688 170.925781 168.550781 L 170.921875 168.550781 C 170.5625 168.441406 170.1875 168.375 169.796875 168.363281 C 169.78125 168.359375 169.769531 168.359375 169.757812 168.359375 M 173.6875 138.589844 C 173.695312 138.546875 173.707031 138.503906 173.71875 138.460938 C 173.828125 138.101562 173.894531 137.726562 173.90625 137.335938 C 173.910156 137.324219 173.910156 137.316406 173.910156 137.304688 C 173.898438 137.753906 173.824219 138.1875 173.6875 138.589844 M 173.941406 136.886719 C 173.945312 137.015625 173.949219 137.167969 173.953125 137.332031 C 173.949219 137.167969 173.945312 137.015625 173.941406 136.886719 M 203.339844 172.527344 C 203.347656 172.089844 203.421875 171.667969 203.550781 171.269531 C 203.542969 171.289062 203.539062 171.3125 203.535156 171.332031 L 203.53125 171.335938 C 203.421875 171.695312 203.359375 172.070312 203.34375 172.460938 C 203.34375 172.480469 203.339844 172.503906 203.339844 172.527344 " fill-opacity="1" fill-rule="nonzero"/></g></g></g></g><g clip-path="url(#10b290e39c)"><g clip-path="url(#09fa27d72b)"><g clip-path="url(#a620613ccd)"><g clip-path="url(#9067053223)"><path fill="#05685e" d="M 168.144531 144.789062 C 170.875 143.769531 172.972656 141.453125 173.6875 138.589844 C 173.824219 138.1875 173.898438 137.753906 173.910156 137.304688 C 173.925781 137.167969 173.933594 137.027344 173.941406 136.886719 C 173.945312 137.015625 173.949219 137.167969 173.953125 137.332031 C 173.953125 137.378906 173.953125 137.425781 173.953125 137.472656 C 173.960938 139.632812 173.574219 144.195312 170.246094 144.753906 C 170.019531 144.773438 169.789062 144.785156 169.554688 144.785156 L 168.144531 144.789062 M 170.628906 168.328125 C 172.949219 168.414062 176.71875 169.019531 177.222656 172.019531 C 177.234375 172.140625 177.242188 172.265625 177.25 172.386719 C 177 169.078125 173.042969 168.417969 170.628906 168.328125 M 197.492188 137.390625 C 197.726562 141.101562 202.570312 141.519531 204.824219 141.515625 C 204.996094 141.511719 205.15625 141.511719 205.292969 141.507812 C 205.332031 141.507812 205.367188 141.511719 205.40625 141.511719 C 203.65625 141.578125 198.136719 141.496094 197.519531 137.820312 C 197.507812 137.679688 197.496094 137.535156 197.492188 137.390625 M 203.296875 172.324219 C 203.296875 171.726562 203.324219 170.945312 203.4375 170.121094 C 203.746094 167.847656 204.6875 165.222656 207.371094 165.019531 C 207.476562 165.011719 207.585938 165.011719 207.695312 165.007812 L 209.105469 165.003906 C 206.355469 166.035156 204.246094 168.378906 203.550781 171.269531 C 203.421875 171.667969 203.347656 172.089844 203.339844 172.527344 C 203.324219 172.65625 203.316406 172.785156 203.3125 172.917969 C 203.304688 172.75 203.300781 172.550781 203.296875 172.324219 " fill-opacity="1" fill-rule="nonzero"/></g></g></g></g><g clip-path="url(#24ba2a5b7c)"><g clip-path="url(#15ebc59b52)"><g clip-path="url(#428b737a14)"><g clip-path="url(#91657e895c)"><path fill="#00867e" d="M 169.339844 168.328125 C 169.660156 168.316406 170.105469 168.308594 170.628906 168.328125 C 173.042969 168.417969 177 169.078125 177.25 172.386719 C 177.253906 172.496094 177.257812 172.601562 177.257812 172.707031 L 177.261719 174.117188 C 176.226562 171.359375 173.867188 169.25 170.960938 168.558594 C 170.578125 168.4375 170.175781 168.367188 169.757812 168.359375 C 169.617188 168.34375 169.476562 168.335938 169.339844 168.328125 M 173.941406 136.886719 C 173.941406 136.882812 173.941406 136.882812 173.941406 136.878906 C 173.945312 137.007812 173.949219 137.164062 173.953125 137.332031 C 173.949219 137.167969 173.945312 137.015625 173.941406 136.886719 M 197.488281 137.132812 L 197.484375 135.722656 C 198.519531 138.492188 200.894531 140.609375 203.820312 141.289062 C 204.179688 141.398438 204.558594 141.464844 204.949219 141.476562 C 205.0625 141.488281 205.175781 141.5 205.292969 141.507812 C 205.15625 141.511719 204.996094 141.511719 204.824219 141.515625 C 202.570312 141.519531 197.726562 141.101562 197.492188 137.390625 C 197.488281 137.304688 197.488281 137.21875 197.488281 137.132812 M 203.4375 170.121094 C 203.730469 167.949219 204.597656 165.445312 207.007812 165.042969 C 207.125 165.03125 207.246094 165.023438 207.371094 165.019531 C 204.6875 165.222656 203.746094 167.847656 203.4375 170.121094 " fill-opacity="1" fill-rule="nonzero"/></g></g></g></g><g fill="#05685e" fill-opacity="1"><g transform="translate(96.373752, 247.320512)"><g><path d="M 2.84375 -21.515625 C 5.601562 -21.515625 7.546875 -21.503906 8.671875 -21.484375 C 16.234375 -21.316406 20.015625 -17.769531 20.015625 -10.84375 C 20.015625 -7.382812 19.039062 -4.710938 17.09375 -2.828125 C 15.15625 -0.941406 12.28125 0 8.46875 0 L 2.875 0 C 2.488281 0 2.296875 -0.203125 2.296875 -0.609375 L 2.296875 -21 C 2.296875 -21.1875 2.332031 -21.316406 2.40625 -21.390625 C 2.476562 -21.472656 2.625 -21.515625 2.84375 -21.515625 Z M 6.84375 -18.4375 C 6.664062 -18.4375 6.578125 -18.300781 6.578125 -18.03125 L 6.578125 -3.421875 C 6.578125 -3.285156 6.601562 -3.191406 6.65625 -3.140625 C 6.71875 -3.097656 6.816406 -3.078125 6.953125 -3.078125 L 7.6875 -3.078125 C 10.414062 -3.078125 12.398438 -3.675781 13.640625 -4.875 C 14.890625 -6.070312 15.515625 -8.0625 15.515625 -10.84375 C 15.515625 -12.644531 15.257812 -14.082031 14.75 -15.15625 C 14.25 -16.226562 13.5 -17.015625 12.5 -17.515625 C 11.507812 -18.015625 10.210938 -18.304688 8.609375 -18.390625 Z M 6.84375 -18.4375 "/></g></g></g><g fill="#05685e" fill-opacity="1"><g transform="translate(122.670946, 247.320512)"><g><path d="M 8.671875 0.296875 C 7.179688 0.296875 5.851562 -0.0351562 4.6875 -0.703125 C 3.53125 -1.378906 2.632812 -2.316406 2 -3.515625 C 1.363281 -4.710938 1.046875 -6.070312 1.046875 -7.59375 C 1.046875 -9.164062 1.375 -10.5625 2.03125 -11.78125 C 2.6875 -13.007812 3.59375 -13.960938 4.75 -14.640625 C 5.914062 -15.316406 7.234375 -15.65625 8.703125 -15.65625 C 10.191406 -15.65625 11.515625 -15.3125 12.671875 -14.625 C 13.828125 -13.9375 14.722656 -12.984375 15.359375 -11.765625 C 16.003906 -10.554688 16.328125 -9.175781 16.328125 -7.625 C 16.328125 -6.101562 16.003906 -4.738281 15.359375 -3.53125 C 14.710938 -2.332031 13.804688 -1.394531 12.640625 -0.71875 C 11.484375 -0.0390625 10.160156 0.296875 8.671875 0.296875 Z M 8.703125 -2.296875 C 9.941406 -2.296875 10.882812 -2.757812 11.53125 -3.6875 C 12.175781 -4.613281 12.5 -5.945312 12.5 -7.6875 C 12.5 -9.445312 12.171875 -10.800781 11.515625 -11.75 C 10.859375 -12.695312 9.921875 -13.171875 8.703125 -13.171875 C 7.484375 -13.171875 6.539062 -12.695312 5.875 -11.75 C 5.207031 -10.800781 4.875 -9.445312 4.875 -7.6875 C 4.875 -5.945312 5.207031 -4.613281 5.875 -3.6875 C 6.539062 -2.757812 7.484375 -2.296875 8.703125 -2.296875 Z M 8.703125 -2.296875 "/></g></g></g><g fill="#05685e" fill-opacity="1"><g transform="translate(144.851254, 247.320512)"><g><path d="M 8.609375 -15.65625 C 10.234375 -15.65625 11.585938 -15.257812 12.671875 -14.46875 C 13.753906 -13.675781 14.53125 -12.703125 15 -11.546875 L 15.046875 -11.28125 C 15.046875 -11.125 14.929688 -11.023438 14.703125 -10.984375 L 12.15625 -10.671875 L 12.03125 -10.640625 C 11.894531 -10.640625 11.800781 -10.738281 11.75 -10.9375 C 11.28125 -11.6875 10.835938 -12.238281 10.421875 -12.59375 C 10.003906 -12.957031 9.453125 -13.140625 8.765625 -13.140625 C 7.554688 -13.140625 6.601562 -12.664062 5.90625 -11.71875 C 5.21875 -10.769531 4.875 -9.425781 4.875 -7.6875 C 4.875 -5.90625 5.226562 -4.546875 5.9375 -3.609375 C 6.65625 -2.671875 7.65625 -2.203125 8.9375 -2.203125 C 9.757812 -2.203125 10.453125 -2.414062 11.015625 -2.84375 C 11.578125 -3.269531 12.117188 -3.914062 12.640625 -4.78125 C 12.703125 -4.863281 12.765625 -4.910156 12.828125 -4.921875 C 12.898438 -4.941406 12.992188 -4.9375 13.109375 -4.90625 L 14.9375 -4.40625 C 15.125 -4.351562 15.179688 -4.191406 15.109375 -3.921875 C 14.628906 -2.796875 13.847656 -1.8125 12.765625 -0.96875 C 11.679688 -0.125 10.296875 0.296875 8.609375 0.296875 C 7.160156 0.296875 5.859375 -0.0351562 4.703125 -0.703125 C 3.554688 -1.378906 2.660156 -2.316406 2.015625 -3.515625 C 1.367188 -4.710938 1.046875 -6.082031 1.046875 -7.625 C 1.046875 -9.1875 1.375 -10.578125 2.03125 -11.796875 C 2.6875 -13.015625 3.585938 -13.960938 4.734375 -14.640625 C 5.890625 -15.316406 7.179688 -15.65625 8.609375 -15.65625 Z M 8.609375 -15.65625 "/></g></g></g><g fill="#05685e" fill-opacity="1"><g transform="translate(165.552963, 247.320512)"><g><path d="M 2.296875 -21.03125 C 2.296875 -21.351562 2.4375 -21.515625 2.71875 -21.515625 L 16.5625 -21.515625 C 16.8125 -21.515625 16.9375 -21.367188 16.9375 -21.078125 L 16.90625 -18.875 C 16.90625 -18.507812 16.738281 -18.328125 16.40625 -18.328125 L 7.078125 -18.328125 C 6.742188 -18.328125 6.578125 -18.191406 6.578125 -17.921875 L 6.578125 -12.53125 C 6.578125 -12.238281 6.710938 -12.09375 6.984375 -12.09375 L 13.78125 -12.09375 C 14.050781 -12.09375 14.1875 -11.957031 14.1875 -11.6875 L 14.1875 -9.359375 C 14.1875 -9.242188 14.15625 -9.15625 14.09375 -9.09375 C 14.03125 -9.039062 13.925781 -9.015625 13.78125 -9.015625 L 6.953125 -9.015625 C 6.703125 -9.015625 6.578125 -8.890625 6.578125 -8.640625 L 6.578125 -0.546875 C 6.578125 -0.359375 6.523438 -0.21875 6.421875 -0.125 C 6.316406 -0.0390625 6.15625 0 5.9375 0 L 2.84375 0 C 2.625 0 2.476562 -0.0351562 2.40625 -0.109375 C 2.332031 -0.191406 2.296875 -0.328125 2.296875 -0.515625 Z M 2.296875 -21.03125 "/></g></g></g><g fill="#05685e" fill-opacity="1"><g transform="translate(188.371095, 247.320512)"><g><path d="M 5.65625 -18.21875 C 5.65625 -17.976562 5.601562 -17.804688 5.5 -17.703125 C 5.394531 -17.597656 5.210938 -17.546875 4.953125 -17.546875 L 2.3125 -17.546875 C 2.101562 -17.546875 1.957031 -17.59375 1.875 -17.6875 C 1.800781 -17.78125 1.765625 -17.925781 1.765625 -18.125 L 1.765625 -20.96875 C 1.765625 -21.332031 1.921875 -21.515625 2.234375 -21.515625 L 5.21875 -21.515625 C 5.351562 -21.515625 5.457031 -21.46875 5.53125 -21.375 C 5.613281 -21.289062 5.65625 -21.175781 5.65625 -21.03125 Z M 5.59375 -0.640625 C 5.59375 -0.410156 5.539062 -0.242188 5.4375 -0.140625 C 5.332031 -0.046875 5.15625 0 4.90625 0 L 2.375 0 C 2.164062 0 2.019531 -0.0351562 1.9375 -0.109375 C 1.863281 -0.191406 1.828125 -0.328125 1.828125 -0.515625 L 1.828125 -14.875 C 1.828125 -15.207031 1.972656 -15.375 2.265625 -15.375 L 5.1875 -15.375 C 5.457031 -15.375 5.59375 -15.21875 5.59375 -14.90625 Z M 5.59375 -0.640625 "/></g></g></g><g fill="#05685e" fill-opacity="1"><g transform="translate(200.607083, 247.320512)"><g><path d="M 2.34375 0 C 2.15625 0 2.019531 -0.0351562 1.9375 -0.109375 C 1.863281 -0.191406 1.828125 -0.328125 1.828125 -0.515625 L 1.828125 -14.875 C 1.828125 -15.207031 1.960938 -15.375 2.234375 -15.375 L 5.140625 -15.375 C 5.390625 -15.375 5.515625 -15.226562 5.515625 -14.9375 L 5.515625 -13.421875 C 5.515625 -13.304688 5.539062 -13.238281 5.59375 -13.21875 C 5.65625 -13.195312 5.734375 -13.226562 5.828125 -13.3125 C 6.734375 -14.101562 7.578125 -14.691406 8.359375 -15.078125 C 9.148438 -15.460938 10 -15.65625 10.90625 -15.65625 C 12.332031 -15.65625 13.457031 -15.242188 14.28125 -14.421875 C 15.101562 -13.597656 15.515625 -12.515625 15.515625 -11.171875 L 15.515625 -0.609375 C 15.515625 -0.203125 15.3125 0 14.90625 0 L 12.234375 0 C 12.046875 0 11.914062 -0.0351562 11.84375 -0.109375 C 11.78125 -0.191406 11.75 -0.328125 11.75 -0.515625 L 11.75 -10.5 C 11.75 -11.25 11.539062 -11.832031 11.125 -12.25 C 10.707031 -12.664062 10.101562 -12.875 9.3125 -12.875 C 8.632812 -12.875 8.019531 -12.71875 7.46875 -12.40625 C 6.914062 -12.101562 6.289062 -11.601562 5.59375 -10.90625 L 5.59375 -0.578125 C 5.59375 -0.367188 5.546875 -0.21875 5.453125 -0.125 C 5.359375 -0.0390625 5.1875 0 4.9375 0 Z M 2.34375 0 "/></g></g></g><g fill="#05685e" fill-opacity="1"><g transform="translate(222.584441, 247.320512)"><g><path d="M 12.59375 0 C 12.21875 0 12.03125 -0.171875 12.03125 -0.515625 L 12.03125 -1.484375 C 12.03125 -1.648438 11.984375 -1.734375 11.890625 -1.734375 C 11.828125 -1.734375 11.75 -1.6875 11.65625 -1.59375 C 11.09375 -1.050781 10.46875 -0.597656 9.78125 -0.234375 C 9.101562 0.117188 8.269531 0.296875 7.28125 0.296875 C 6.082031 0.296875 5.019531 0 4.09375 -0.59375 C 3.164062 -1.1875 2.4375 -2.066406 1.90625 -3.234375 C 1.375 -4.398438 1.109375 -5.835938 1.109375 -7.546875 C 1.109375 -9.128906 1.390625 -10.535156 1.953125 -11.765625 C 2.523438 -13.003906 3.300781 -13.960938 4.28125 -14.640625 C 5.269531 -15.316406 6.375 -15.65625 7.59375 -15.65625 C 8.40625 -15.65625 9.113281 -15.523438 9.71875 -15.265625 C 10.332031 -15.003906 10.921875 -14.625 11.484375 -14.125 C 11.578125 -14.03125 11.679688 -13.984375 11.796875 -13.984375 C 11.921875 -13.984375 11.984375 -14.109375 11.984375 -14.359375 L 11.984375 -21.046875 C 11.984375 -21.359375 12.117188 -21.515625 12.390625 -21.515625 L 15.3125 -21.515625 C 15.601562 -21.515625 15.75 -21.351562 15.75 -21.03125 L 15.75 -0.546875 C 15.75 -0.359375 15.703125 -0.21875 15.609375 -0.125 C 15.523438 -0.0390625 15.367188 0 15.140625 0 Z M 11.984375 -11.578125 C 11.453125 -12.117188 10.941406 -12.519531 10.453125 -12.78125 C 9.960938 -13.039062 9.40625 -13.171875 8.78125 -13.171875 C 7.625 -13.171875 6.691406 -12.703125 5.984375 -11.765625 C 5.285156 -10.828125 4.9375 -9.4375 4.9375 -7.59375 C 4.9375 -5.738281 5.273438 -4.363281 5.953125 -3.46875 C 6.640625 -2.582031 7.554688 -2.140625 8.703125 -2.140625 C 9.296875 -2.140625 9.84375 -2.28125 10.34375 -2.5625 C 10.851562 -2.84375 11.253906 -3.207031 11.546875 -3.65625 C 11.835938 -4.101562 11.984375 -4.554688 11.984375 -5.015625 Z M 11.984375 -11.578125 "/></g></g></g><g fill="#05685e" fill-opacity="1"><g transform="translate(244.967687, 247.320512)"><g><path d="M 4.953125 -6.5 C 4.953125 -5.707031 5.132812 -4.992188 5.5 -4.359375 C 5.875 -3.734375 6.382812 -3.238281 7.03125 -2.875 C 7.675781 -2.519531 8.382812 -2.34375 9.15625 -2.34375 C 9.957031 -2.34375 10.679688 -2.507812 11.328125 -2.84375 C 11.972656 -3.1875 12.585938 -3.71875 13.171875 -4.4375 C 13.265625 -4.53125 13.335938 -4.578125 13.390625 -4.578125 C 13.453125 -4.578125 13.539062 -4.550781 13.65625 -4.5 L 15.421875 -3.71875 C 15.554688 -3.65625 15.625 -3.566406 15.625 -3.453125 C 15.625 -3.390625 15.585938 -3.300781 15.515625 -3.1875 C 14.640625 -1.9375 13.675781 -1.039062 12.625 -0.5 C 11.570312 0.03125 10.273438 0.296875 8.734375 0.296875 C 7.265625 0.296875 5.941406 -0.03125 4.765625 -0.6875 C 3.597656 -1.351562 2.6875 -2.273438 2.03125 -3.453125 C 1.375 -4.628906 1.046875 -5.972656 1.046875 -7.484375 C 1.046875 -9.109375 1.382812 -10.535156 2.0625 -11.765625 C 2.738281 -13.003906 3.65625 -13.960938 4.8125 -14.640625 C 5.96875 -15.316406 7.253906 -15.65625 8.671875 -15.65625 C 10.117188 -15.65625 11.398438 -15.335938 12.515625 -14.703125 C 13.628906 -14.066406 14.488281 -13.144531 15.09375 -11.9375 C 15.707031 -10.726562 16.015625 -9.289062 16.015625 -7.625 L 16.015625 -7.515625 C 16.015625 -7.316406 15.984375 -7.175781 15.921875 -7.09375 C 15.859375 -7.019531 15.734375 -6.972656 15.546875 -6.953125 L 5.28125 -6.953125 C 5.0625 -6.953125 4.953125 -6.800781 4.953125 -6.5 Z M 11.828125 -9.109375 C 12.023438 -9.109375 12.15625 -9.128906 12.21875 -9.171875 C 12.289062 -9.222656 12.328125 -9.335938 12.328125 -9.515625 C 12.328125 -10.128906 12.191406 -10.726562 11.921875 -11.3125 C 11.648438 -11.894531 11.25 -12.367188 10.71875 -12.734375 C 10.1875 -13.097656 9.550781 -13.28125 8.8125 -13.28125 C 7.675781 -13.28125 6.753906 -12.878906 6.046875 -12.078125 C 5.335938 -11.273438 4.992188 -10.285156 5.015625 -9.109375 Z M 11.828125 -9.109375 "/></g></g></g><g fill="#05685e" fill-opacity="1"><g transform="translate(266.713108, 247.320512)"><g><path d="M 2.34375 0 C 2 0 1.828125 -0.171875 1.828125 -0.515625 L 1.828125 -14.875 C 1.828125 -15.207031 1.960938 -15.375 2.234375 -15.375 L 5.046875 -15.375 C 5.316406 -15.375 5.453125 -15.226562 5.453125 -14.9375 L 5.453125 -13.171875 C 5.453125 -13.015625 5.5 -12.9375 5.59375 -12.9375 C 5.65625 -12.9375 5.734375 -12.984375 5.828125 -13.078125 C 6.460938 -13.890625 7.164062 -14.519531 7.9375 -14.96875 C 8.71875 -15.425781 9.472656 -15.65625 10.203125 -15.65625 C 10.898438 -15.65625 11.25 -15.503906 11.25 -15.203125 L 11.25 -12.40625 C 11.25 -12.132812 11.125 -12.019531 10.875 -12.0625 C 10.332031 -12.195312 9.734375 -12.265625 9.078125 -12.265625 C 8.578125 -12.265625 8.050781 -12.128906 7.5 -11.859375 C 6.945312 -11.585938 6.488281 -11.234375 6.125 -10.796875 C 5.769531 -10.367188 5.59375 -9.921875 5.59375 -9.453125 L 5.59375 -0.578125 C 5.59375 -0.191406 5.375 0 4.9375 0 Z M 2.34375 0 "/></g></g></g><g fill="#05685e" fill-opacity="1"><g transform="translate(132.169881, 265.670491)"><g><path d="M 1.15625 0 C 1.09375 0 1.039062 -0.015625 1 -0.046875 C 0.96875 -0.0859375 0.953125 -0.132812 0.953125 -0.1875 L 0.953125 -8.671875 C 0.953125 -8.742188 0.96875 -8.800781 1 -8.84375 C 1.039062 -8.882812 1.09375 -8.90625 1.15625 -8.90625 L 4.25 -8.90625 C 5.394531 -8.90625 6.269531 -8.707031 6.875 -8.3125 C 7.476562 -7.914062 7.78125 -7.335938 7.78125 -6.578125 C 7.78125 -6.117188 7.65625 -5.726562 7.40625 -5.40625 C 7.164062 -5.09375 6.765625 -4.828125 6.203125 -4.609375 C 6.179688 -4.597656 6.171875 -4.582031 6.171875 -4.5625 C 6.171875 -4.539062 6.179688 -4.523438 6.203125 -4.515625 C 6.804688 -4.328125 7.253906 -4.0625 7.546875 -3.71875 C 7.835938 -3.382812 7.984375 -2.945312 7.984375 -2.40625 C 7.984375 -0.800781 6.78125 0 4.375 0 Z M 4.421875 -5.125 C 4.867188 -5.125 5.242188 -5.222656 5.546875 -5.421875 C 5.859375 -5.628906 6.015625 -5.945312 6.015625 -6.375 C 6.015625 -6.800781 5.859375 -7.125 5.546875 -7.34375 C 5.242188 -7.570312 4.828125 -7.6875 4.296875 -7.6875 L 2.921875 -7.6875 C 2.847656 -7.6875 2.796875 -7.671875 2.765625 -7.640625 C 2.734375 -7.609375 2.71875 -7.5625 2.71875 -7.5 L 2.71875 -5.328125 C 2.71875 -5.253906 2.726562 -5.203125 2.75 -5.171875 C 2.78125 -5.140625 2.820312 -5.125 2.875 -5.125 Z M 4.3125 -1.21875 C 4.914062 -1.21875 5.367188 -1.328125 5.671875 -1.546875 C 5.984375 -1.773438 6.140625 -2.101562 6.140625 -2.53125 C 6.140625 -2.96875 5.984375 -3.300781 5.671875 -3.53125 C 5.359375 -3.757812 4.941406 -3.875 4.421875 -3.875 L 2.9375 -3.875 C 2.851562 -3.875 2.796875 -3.859375 2.765625 -3.828125 C 2.734375 -3.804688 2.71875 -3.757812 2.71875 -3.6875 L 2.71875 -1.421875 C 2.71875 -1.347656 2.726562 -1.296875 2.75 -1.265625 C 2.78125 -1.234375 2.820312 -1.21875 2.875 -1.21875 Z M 4.3125 -1.21875 "/></g></g></g><g fill="#05685e" fill-opacity="1"><g transform="translate(140.749894, 265.670491)"><g><path d="M 4.625 0.125 C 3.800781 0.125 3.085938 -0.0507812 2.484375 -0.40625 C 1.890625 -0.769531 1.429688 -1.296875 1.109375 -1.984375 C 0.785156 -2.671875 0.625 -3.484375 0.625 -4.421875 C 0.625 -5.367188 0.785156 -6.1875 1.109375 -6.875 C 1.441406 -7.570312 1.90625 -8.101562 2.5 -8.46875 C 3.101562 -8.84375 3.8125 -9.03125 4.625 -9.03125 C 5.4375 -9.03125 6.140625 -8.84375 6.734375 -8.46875 C 7.335938 -8.101562 7.800781 -7.570312 8.125 -6.875 C 8.457031 -6.1875 8.625 -5.367188 8.625 -4.421875 C 8.625 -3.492188 8.460938 -2.6875 8.140625 -2 C 7.816406 -1.3125 7.351562 -0.785156 6.75 -0.421875 C 6.15625 -0.0546875 5.445312 0.125 4.625 0.125 Z M 4.640625 -1.15625 C 5.367188 -1.15625 5.90625 -1.414062 6.25 -1.9375 C 6.59375 -2.457031 6.765625 -3.28125 6.765625 -4.40625 C 6.765625 -5.550781 6.585938 -6.394531 6.234375 -6.9375 C 5.890625 -7.488281 5.351562 -7.765625 4.625 -7.765625 C 3.90625 -7.765625 3.363281 -7.488281 3 -6.9375 C 2.644531 -6.394531 2.46875 -5.550781 2.46875 -4.40625 C 2.46875 -3.28125 2.644531 -2.457031 3 -1.9375 C 3.351562 -1.414062 3.898438 -1.15625 4.640625 -1.15625 Z M 4.640625 -1.15625 "/></g></g></g><g fill="#05685e" fill-opacity="1"><g transform="translate(149.989911, 265.670491)"><g><path d="M 4.625 0.125 C 3.800781 0.125 3.085938 -0.0507812 2.484375 -0.40625 C 1.890625 -0.769531 1.429688 -1.296875 1.109375 -1.984375 C 0.785156 -2.671875 0.625 -3.484375 0.625 -4.421875 C 0.625 -5.367188 0.785156 -6.1875 1.109375 -6.875 C 1.441406 -7.570312 1.90625 -8.101562 2.5 -8.46875 C 3.101562 -8.84375 3.8125 -9.03125 4.625 -9.03125 C 5.4375 -9.03125 6.140625 -8.84375 6.734375 -8.46875 C 7.335938 -8.101562 7.800781 -7.570312 8.125 -6.875 C 8.457031 -6.1875 8.625 -5.367188 8.625 -4.421875 C 8.625 -3.492188 8.460938 -2.6875 8.140625 -2 C 7.816406 -1.3125 7.351562 -0.785156 6.75 -0.421875 C 6.15625 -0.0546875 5.445312 0.125 4.625 0.125 Z M 4.640625 -1.15625 C 5.367188 -1.15625 5.90625 -1.414062 6.25 -1.9375 C 6.59375 -2.457031 6.765625 -3.28125 6.765625 -4.40625 C 6.765625 -5.550781 6.585938 -6.394531 6.234375 -6.9375 C 5.890625 -7.488281 5.351562 -7.765625 4.625 -7.765625 C 3.90625 -7.765625 3.363281 -7.488281 3 -6.9375 C 2.644531 -6.394531 2.46875 -5.550781 2.46875 -4.40625 C 2.46875 -3.28125 2.644531 -2.457031 3 -1.9375 C 3.351562 -1.414062 3.898438 -1.15625 4.640625 -1.15625 Z M 4.640625 -1.15625 "/></g></g></g><g fill="#05685e" fill-opacity="1"><g transform="translate(159.229927, 265.670491)"><g><path d="M 8.296875 -0.25 C 8.328125 -0.207031 8.34375 -0.164062 8.34375 -0.125 C 8.34375 -0.0390625 8.289062 0 8.1875 0 L 6.671875 0 C 6.515625 0 6.414062 -0.0507812 6.375 -0.15625 L 4.1875 -4.15625 C 4.164062 -4.195312 4.140625 -4.21875 4.109375 -4.21875 C 4.078125 -4.21875 4.035156 -4.1875 3.984375 -4.125 L 2.8125 -2.75 C 2.75 -2.6875 2.71875 -2.609375 2.71875 -2.515625 L 2.71875 -0.234375 C 2.71875 -0.078125 2.628906 0 2.453125 0 L 1.1875 0 C 1.101562 0 1.039062 -0.015625 1 -0.046875 C 0.96875 -0.078125 0.953125 -0.132812 0.953125 -0.21875 L 0.953125 -8.71875 C 0.953125 -8.769531 0.96875 -8.8125 1 -8.84375 C 1.03125 -8.882812 1.066406 -8.90625 1.109375 -8.90625 L 2.5625 -8.90625 C 2.664062 -8.90625 2.71875 -8.84375 2.71875 -8.71875 L 2.71875 -4.859375 C 2.71875 -4.785156 2.734375 -4.75 2.765625 -4.75 C 2.785156 -4.75 2.816406 -4.769531 2.859375 -4.8125 L 6.125 -8.734375 C 6.164062 -8.796875 6.207031 -8.835938 6.25 -8.859375 C 6.300781 -8.890625 6.375 -8.90625 6.46875 -8.90625 L 7.6875 -8.90625 C 7.75 -8.90625 7.796875 -8.890625 7.828125 -8.859375 C 7.867188 -8.835938 7.890625 -8.804688 7.890625 -8.765625 C 7.890625 -8.734375 7.875 -8.695312 7.84375 -8.65625 L 5.375 -5.8125 C 5.34375 -5.78125 5.328125 -5.742188 5.328125 -5.703125 C 5.328125 -5.671875 5.335938 -5.628906 5.359375 -5.578125 Z M 8.296875 -0.25 "/></g></g></g><g fill="#05685e" fill-opacity="1"><g transform="translate(167.977939, 265.670491)"><g/></g></g><g fill="#05685e" fill-opacity="1"><g transform="translate(170.485946, 265.670491)"><g><path d="M 2.5625 -8.90625 C 2.664062 -8.90625 2.71875 -8.84375 2.71875 -8.71875 L 2.71875 -0.265625 C 2.71875 -0.171875 2.695312 -0.101562 2.65625 -0.0625 C 2.613281 -0.0195312 2.539062 0 2.4375 0 L 1.1875 0 C 1.09375 0 1.03125 -0.015625 1 -0.046875 C 0.96875 -0.078125 0.953125 -0.132812 0.953125 -0.21875 L 0.953125 -8.703125 C 0.953125 -8.835938 1.007812 -8.90625 1.125 -8.90625 Z M 2.5625 -8.90625 "/></g></g></g><g fill="#05685e" fill-opacity="1"><g transform="translate(174.157954, 265.670491)"><g><path d="M 8 -8.90625 C 8.0625 -8.90625 8.097656 -8.890625 8.109375 -8.859375 C 8.128906 -8.835938 8.140625 -8.796875 8.140625 -8.734375 L 8.140625 -0.1875 C 8.140625 -0.0625 8.070312 0 7.9375 0 L 6.953125 0 C 6.890625 0 6.835938 -0.00390625 6.796875 -0.015625 C 6.753906 -0.0351562 6.707031 -0.0703125 6.65625 -0.125 L 2.5625 -5.96875 C 2.53125 -6.007812 2.5 -6.03125 2.46875 -6.03125 C 2.4375 -6.03125 2.421875 -6.003906 2.421875 -5.953125 L 2.421875 -0.15625 C 2.421875 -0.0507812 2.351562 0 2.21875 0 L 1.15625 0 C 1.019531 0 0.953125 -0.0625 0.953125 -0.1875 L 0.953125 -8.703125 C 0.953125 -8.835938 1.015625 -8.90625 1.140625 -8.90625 L 2.34375 -8.90625 C 2.414062 -8.90625 2.472656 -8.894531 2.515625 -8.875 C 2.554688 -8.851562 2.601562 -8.8125 2.65625 -8.75 L 6.515625 -3.1875 C 6.546875 -3.125 6.582031 -3.09375 6.625 -3.09375 C 6.675781 -3.09375 6.703125 -3.132812 6.703125 -3.21875 L 6.703125 -8.71875 C 6.703125 -8.84375 6.765625 -8.90625 6.890625 -8.90625 Z M 8 -8.90625 "/></g></g></g><g fill="#05685e" fill-opacity="1"><g transform="translate(183.253969, 265.670491)"><g/></g></g><g fill="#05685e" fill-opacity="1"><g transform="translate(185.761976, 265.670491)"><g><path d="M 4.625 0.125 C 3.800781 0.125 3.085938 -0.0507812 2.484375 -0.40625 C 1.890625 -0.769531 1.429688 -1.296875 1.109375 -1.984375 C 0.785156 -2.671875 0.625 -3.484375 0.625 -4.421875 C 0.625 -5.367188 0.785156 -6.1875 1.109375 -6.875 C 1.441406 -7.570312 1.90625 -8.101562 2.5 -8.46875 C 3.101562 -8.84375 3.8125 -9.03125 4.625 -9.03125 C 5.4375 -9.03125 6.140625 -8.84375 6.734375 -8.46875 C 7.335938 -8.101562 7.800781 -7.570312 8.125 -6.875 C 8.457031 -6.1875 8.625 -5.367188 8.625 -4.421875 C 8.625 -3.492188 8.460938 -2.6875 8.140625 -2 C 7.816406 -1.3125 7.351562 -0.785156 6.75 -0.421875 C 6.15625 -0.0546875 5.445312 0.125 4.625 0.125 Z M 4.640625 -1.15625 C 5.367188 -1.15625 5.90625 -1.414062 6.25 -1.9375 C 6.59375 -2.457031 6.765625 -3.28125 6.765625 -4.40625 C 6.765625 -5.550781 6.585938 -6.394531 6.234375 -6.9375 C 5.890625 -7.488281 5.351562 -7.765625 4.625 -7.765625 C 3.90625 -7.765625 3.363281 -7.488281 3 -6.9375 C 2.644531 -6.394531 2.46875 -5.550781 2.46875 -4.40625 C 2.46875 -3.28125 2.644531 -2.457031 3 -1.9375 C 3.351562 -1.414062 3.898438 -1.15625 4.640625 -1.15625 Z M 4.640625 -1.15625 "/></g></g></g><g fill="#05685e" fill-opacity="1"><g transform="translate(195.001993, 265.670491)"><g><path d="M 8 -8.90625 C 8.0625 -8.90625 8.097656 -8.890625 8.109375 -8.859375 C 8.128906 -8.835938 8.140625 -8.796875 8.140625 -8.734375 L 8.140625 -0.1875 C 8.140625 -0.0625 8.070312 0 7.9375 0 L 6.953125 0 C 6.890625 0 6.835938 -0.00390625 6.796875 -0.015625 C 6.753906 -0.0351562 6.707031 -0.0703125 6.65625 -0.125 L 2.5625 -5.96875 C 2.53125 -6.007812 2.5 -6.03125 2.46875 -6.03125 C 2.4375 -6.03125 2.421875 -6.003906 2.421875 -5.953125 L 2.421875 -0.15625 C 2.421875 -0.0507812 2.351562 0 2.21875 0 L 1.15625 0 C 1.019531 0 0.953125 -0.0625 0.953125 -0.1875 L 0.953125 -8.703125 C 0.953125 -8.835938 1.015625 -8.90625 1.140625 -8.90625 L 2.34375 -8.90625 C 2.414062 -8.90625 2.472656 -8.894531 2.515625 -8.875 C 2.554688 -8.851562 2.601562 -8.8125 2.65625 -8.75 L 6.515625 -3.1875 C 6.546875 -3.125 6.582031 -3.09375 6.625 -3.09375 C 6.675781 -3.09375 6.703125 -3.132812 6.703125 -3.21875 L 6.703125 -8.71875 C 6.703125 -8.84375 6.765625 -8.90625 6.890625 -8.90625 Z M 8 -8.90625 "/></g></g></g><g fill="#05685e" fill-opacity="1"><g transform="translate(204.098008, 265.670491)"><g><path d="M 0.953125 -8.703125 C 0.953125 -8.835938 1.007812 -8.90625 1.125 -8.90625 L 6.953125 -8.90625 C 7.054688 -8.90625 7.109375 -8.84375 7.109375 -8.71875 L 7.109375 -7.8125 C 7.109375 -7.65625 7.035156 -7.578125 6.890625 -7.578125 L 2.921875 -7.578125 C 2.785156 -7.578125 2.71875 -7.523438 2.71875 -7.421875 L 2.71875 -5.3125 C 2.71875 -5.195312 2.773438 -5.140625 2.890625 -5.140625 L 5.625 -5.140625 C 5.75 -5.140625 5.8125 -5.078125 5.8125 -4.953125 L 5.8125 -3.984375 C 5.8125 -3.890625 5.753906 -3.84375 5.640625 -3.84375 L 2.875 -3.84375 C 2.769531 -3.84375 2.71875 -3.796875 2.71875 -3.703125 L 2.71875 -1.46875 C 2.71875 -1.40625 2.726562 -1.363281 2.75 -1.34375 C 2.769531 -1.320312 2.804688 -1.3125 2.859375 -1.3125 L 7.0625 -1.3125 C 7.125 -1.3125 7.171875 -1.300781 7.203125 -1.28125 C 7.234375 -1.257812 7.25 -1.21875 7.25 -1.15625 L 7.25 -0.1875 C 7.25 -0.132812 7.234375 -0.0859375 7.203125 -0.046875 C 7.171875 -0.015625 7.117188 0 7.046875 0 L 1.171875 0 C 1.097656 0 1.039062 -0.015625 1 -0.046875 C 0.96875 -0.078125 0.953125 -0.132812 0.953125 -0.21875 Z M 0.953125 -8.703125 "/></g></g></g><g fill="#05685e" fill-opacity="1"><g transform="translate(211.838024, 265.670491)"><g/></g></g><g fill="#05685e" fill-opacity="1"><g transform="translate(214.346031, 265.670491)"><g><path d="M 4.578125 -9.03125 C 5.160156 -9.03125 5.703125 -8.914062 6.203125 -8.6875 C 6.703125 -8.457031 7.113281 -8.144531 7.4375 -7.75 C 7.757812 -7.351562 7.960938 -6.914062 8.046875 -6.4375 C 8.046875 -6.40625 8.046875 -6.359375 8.046875 -6.296875 C 8.046875 -6.253906 8.035156 -6.222656 8.015625 -6.203125 C 7.992188 -6.191406 7.960938 -6.179688 7.921875 -6.171875 L 6.546875 -6.078125 C 6.492188 -6.078125 6.457031 -6.082031 6.4375 -6.09375 C 6.414062 -6.113281 6.398438 -6.160156 6.390625 -6.234375 C 6.285156 -6.703125 6.082031 -7.070312 5.78125 -7.34375 C 5.476562 -7.625 5.09375 -7.765625 4.625 -7.765625 C 3.1875 -7.765625 2.46875 -6.664062 2.46875 -4.46875 C 2.46875 -3.363281 2.644531 -2.546875 3 -2.015625 C 3.363281 -1.484375 3.914062 -1.21875 4.65625 -1.21875 C 5.164062 -1.21875 5.59375 -1.34375 5.9375 -1.59375 C 6.289062 -1.84375 6.578125 -2.25 6.796875 -2.8125 C 6.816406 -2.875 6.890625 -2.894531 7.015625 -2.875 L 8.03125 -2.65625 C 8.070312 -2.632812 8.101562 -2.601562 8.125 -2.5625 C 8.144531 -2.53125 8.148438 -2.472656 8.140625 -2.390625 C 8.035156 -2.023438 7.835938 -1.648438 7.546875 -1.265625 C 7.253906 -0.890625 6.859375 -0.5625 6.359375 -0.28125 C 5.859375 -0.0078125 5.265625 0.125 4.578125 0.125 C 3.773438 0.125 3.070312 -0.0625 2.46875 -0.4375 C 1.875 -0.820312 1.414062 -1.363281 1.09375 -2.0625 C 0.769531 -2.769531 0.609375 -3.582031 0.609375 -4.5 C 0.609375 -5.425781 0.769531 -6.226562 1.09375 -6.90625 C 1.414062 -7.59375 1.875 -8.117188 2.46875 -8.484375 C 3.0625 -8.847656 3.765625 -9.03125 4.578125 -9.03125 Z M 4.578125 -9.03125 "/></g></g></g><g fill="#05685e" fill-opacity="1"><g transform="translate(222.974052, 265.670491)"><g><path d="M 0.953125 -8.703125 C 0.953125 -8.835938 1.007812 -8.90625 1.125 -8.90625 L 2.5625 -8.90625 C 2.664062 -8.90625 2.71875 -8.84375 2.71875 -8.71875 L 2.71875 -1.46875 C 2.71875 -1.40625 2.726562 -1.363281 2.75 -1.34375 C 2.769531 -1.320312 2.804688 -1.3125 2.859375 -1.3125 L 6.796875 -1.3125 C 6.921875 -1.3125 6.984375 -1.257812 6.984375 -1.15625 L 6.984375 -0.1875 C 6.984375 -0.132812 6.96875 -0.0859375 6.9375 -0.046875 C 6.90625 -0.015625 6.851562 0 6.78125 0 L 1.171875 0 C 1.085938 0 1.03125 -0.015625 1 -0.046875 C 0.96875 -0.0859375 0.953125 -0.144531 0.953125 -0.21875 Z M 0.953125 -8.703125 "/></g></g></g><g fill="#05685e" fill-opacity="1"><g transform="translate(230.402068, 265.670491)"><g><path d="M 2.5625 -8.90625 C 2.664062 -8.90625 2.71875 -8.84375 2.71875 -8.71875 L 2.71875 -0.265625 C 2.71875 -0.171875 2.695312 -0.101562 2.65625 -0.0625 C 2.613281 -0.0195312 2.539062 0 2.4375 0 L 1.1875 0 C 1.09375 0 1.03125 -0.015625 1 -0.046875 C 0.96875 -0.078125 0.953125 -0.132812 0.953125 -0.21875 L 0.953125 -8.703125 C 0.953125 -8.835938 1.007812 -8.90625 1.125 -8.90625 Z M 2.5625 -8.90625 "/></g></g></g><g fill="#05685e" fill-opacity="1"><g transform="translate(234.074076, 265.670491)"><g><path d="M 8.296875 -0.25 C 8.328125 -0.207031 8.34375 -0.164062 8.34375 -0.125 C 8.34375 -0.0390625 8.289062 0 8.1875 0 L 6.671875 0 C 6.515625 0 6.414062 -0.0507812 6.375 -0.15625 L 4.1875 -4.15625 C 4.164062 -4.195312 4.140625 -4.21875 4.109375 -4.21875 C 4.078125 -4.21875 4.035156 -4.1875 3.984375 -4.125 L 2.8125 -2.75 C 2.75 -2.6875 2.71875 -2.609375 2.71875 -2.515625 L 2.71875 -0.234375 C 2.71875 -0.078125 2.628906 0 2.453125 0 L 1.1875 0 C 1.101562 0 1.039062 -0.015625 1 -0.046875 C 0.96875 -0.078125 0.953125 -0.132812 0.953125 -0.21875 L 0.953125 -8.71875 C 0.953125 -8.769531 0.96875 -8.8125 1 -8.84375 C 1.03125 -8.882812 1.066406 -8.90625 1.109375 -8.90625 L 2.5625 -8.90625 C 2.664062 -8.90625 2.71875 -8.84375 2.71875 -8.71875 L 2.71875 -4.859375 C 2.71875 -4.785156 2.734375 -4.75 2.765625 -4.75 C 2.785156 -4.75 2.816406 -4.769531 2.859375 -4.8125 L 6.125 -8.734375 C 6.164062 -8.796875 6.207031 -8.835938 6.25 -8.859375 C 6.300781 -8.890625 6.375 -8.90625 6.46875 -8.90625 L 7.6875 -8.90625 C 7.75 -8.90625 7.796875 -8.890625 7.828125 -8.859375 C 7.867188 -8.835938 7.890625 -8.804688 7.890625 -8.765625 C 7.890625 -8.734375 7.875 -8.695312 7.84375 -8.65625 L 5.375 -5.8125 C 5.34375 -5.78125 5.328125 -5.742188 5.328125 -5.703125 C 5.328125 -5.671875 5.335938 -5.628906 5.359375 -5.578125 Z M 8.296875 -0.25 "/></g></g></g></svg>